<svg width="64" height="64" viewBox="0 0 64 64" fill="none" xmlns="http://www.w3.org/2000/svg">
<path d="M32 0C14.3215 0 0 14.3236 0 32C0 49.6764 14.3236 64 32 64C49.6784 64 64 49.6764 64 32C64 14.3236 49.6764 0 32 0ZM47.7172 21.9231L42.465 46.6725C42.0769 48.4274 41.0323 48.8526 39.5747 48.0268L31.5747 42.1306L27.7161 45.8467C27.2908 46.272 26.9295 46.6333 26.1037 46.6333L26.6715 38.4908L41.4968 25.0963C42.143 24.5285 41.3543 24.2065 40.5017 24.7742L22.1791 36.3086L14.2823 33.8436C12.5667 33.3027 12.5275 32.128 14.6436 31.3022L45.4957 19.4044C46.9285 18.8883 48.1796 19.7533 47.7151 21.921L47.7172 21.9231Z" fill="white"/>
</svg>
