<svg width="180" height="135" viewBox="0 0 180 135" fill="none" xmlns="http://www.w3.org/2000/svg">
<path d="M7.5 134.769H172.5C174.489 134.769 176.397 134.178 177.803 133.125C179.21 132.071 180 130.643 180 129.154V28.0769H0V129.154C0 130.643 0.790176 132.071 2.1967 133.125C3.60322 134.178 5.51088 134.769 7.5 134.769Z" fill="#1E2238"/>
<path d="M172.5 0H7.5C5.51088 0 3.60322 0.591619 2.1967 1.64471C0.790176 2.6978 0 4.12609 0 5.61538V28.0769H180V5.61538C180 4.12609 179.21 2.6978 177.803 1.64471C176.397 0.591619 174.489 0 172.5 0Z" fill="#EAE8E8"/>
<path d="M34.9223 11.6741H18.0377C16.487 11.6741 15.23 12.9311 15.23 14.4818C15.23 16.0324 16.487 17.2895 18.0377 17.2895H34.9223C36.4729 17.2895 37.73 16.0324 37.73 14.4818C37.73 12.9311 36.4729 11.6741 34.9223 11.6741Z" fill="#D7D4D4"/>
<path d="M162.192 11.2307H55.3077C53.757 11.2307 52.5 12.4878 52.5 14.0384C52.5 15.5891 53.7571 16.8461 55.3077 16.8461H162.192C163.743 16.8461 165 15.5891 165 14.0384C165 12.4878 163.743 11.2307 162.192 11.2307Z" fill="#D7D4D4"/>
<path d="M27.1923 112.308H17.8077C16.257 112.308 15 113.565 15 115.115C15 116.666 16.257 117.923 17.8077 117.923H27.1923C28.743 117.923 30 116.666 30 115.115C30 113.565 28.743 112.308 27.1923 112.308Z" fill="#464A63"/>
<path d="M27.1923 89.8462H17.8077C16.257 89.8462 15 91.1032 15 92.6539C15 94.2045 16.257 95.4616 17.8077 95.4616H27.1923C28.743 95.4616 30 94.2045 30 92.6539C30 91.1032 28.743 89.8462 27.1923 89.8462Z" fill="#464A63"/>
<path d="M27.1923 101.077H17.8077C16.257 101.077 15 102.334 15 103.885C15 105.435 16.257 106.692 17.8077 106.692H27.1923C28.743 106.692 30 105.435 30 103.885C30 102.334 28.743 101.077 27.1923 101.077Z" fill="#464A63"/>
<path d="M27.1923 67.3846H17.8077C16.257 67.3846 15 68.6417 15 70.1923C15 71.743 16.257 73 17.8077 73H27.1923C28.743 73 30 71.743 30 70.1923C30 68.6417 28.743 67.3846 27.1923 67.3846Z" fill="#464A63"/>
<path d="M27.1923 78.6154H17.8077C16.257 78.6154 15 79.8724 15 81.423C15 82.9737 16.257 84.2307 17.8077 84.2307H27.1923C28.743 84.2307 30 82.9737 30 81.423C30 79.8724 28.743 78.6154 27.1923 78.6154Z" fill="#464A63"/>
<path d="M27.1923 44.9231H17.8077C16.257 44.9231 15 46.1801 15 47.7308C15 49.2814 16.257 50.5385 17.8077 50.5385H27.1923C28.743 50.5385 30 49.2814 30 47.7308C30 46.1801 28.743 44.9231 27.1923 44.9231Z" fill="#464A63"/>
<path d="M27.1923 56.1538H17.8077C16.257 56.1538 15 57.4109 15 58.9615C15 60.5121 16.257 61.7692 17.8077 61.7692H27.1923C28.743 61.7692 30 60.5121 30 58.9615C30 57.4109 28.743 56.1538 27.1923 56.1538Z" fill="#464A63"/>
<path d="M49.6923 78.6154H44.0577C42.507 78.6154 41.25 79.8724 41.25 81.423C41.25 82.9737 42.507 84.2307 44.0577 84.2307H49.6923C51.243 84.2307 52.5 82.9737 52.5 81.423C52.5 79.8724 51.243 78.6154 49.6923 78.6154Z" fill="#FFCB3D"/>
<path d="M94.6923 78.6154H62.8077C61.257 78.6154 60 79.8724 60 81.423C60 82.9737 61.257 84.2307 62.8077 84.2307H94.6923C96.243 84.2307 97.5 82.9737 97.5 81.423C97.5 79.8724 96.243 78.6154 94.6923 78.6154Z" fill="#7A37C4"/>
<path d="M117.192 78.6154H107.808C106.257 78.6154 105 79.8724 105 81.423C105 82.9737 106.257 84.2307 107.808 84.2307H117.192C118.743 84.2307 120 82.9737 120 81.423C120 79.8724 118.743 78.6154 117.192 78.6154Z" fill="#FD1284"/>
<path d="M147.192 78.6154H130.308C128.757 78.6154 127.5 79.8724 127.5 81.423C127.5 82.9737 128.757 84.2307 130.308 84.2307H147.192C148.743 84.2307 150 82.9737 150 81.423C150 79.8724 148.743 78.6154 147.192 78.6154Z" fill="#26C6DA"/>
<path d="M60.9423 67.3846H44.0577C42.507 67.3846 41.25 68.6417 41.25 70.1923C41.25 71.743 42.507 73 44.0577 73H60.9423C62.493 73 63.75 71.743 63.75 70.1923C63.75 68.6417 62.493 67.3846 60.9423 67.3846Z" fill="#7A37C4"/>
<path d="M105.942 67.3846H74.0577C72.507 67.3846 71.25 68.6417 71.25 70.1923C71.25 71.743 72.507 73 74.0577 73H105.942C107.493 73 108.75 71.743 108.75 70.1923C108.75 68.6417 107.493 67.3846 105.942 67.3846Z" fill="#26C6DA"/>
<path d="M135.942 67.3846H119.058C117.507 67.3846 116.25 68.6417 116.25 70.1923C116.25 71.743 117.507 73 119.058 73H135.942C137.493 73 138.75 71.743 138.75 70.1923C138.75 68.6417 137.493 67.3846 135.942 67.3846Z" fill="#FD1284"/>
<path d="M60.9423 89.8462H44.0577C42.507 89.8462 41.25 91.1032 41.25 92.6539C41.25 94.2045 42.507 95.4616 44.0577 95.4616H60.9423C62.493 95.4616 63.75 94.2045 63.75 92.6539C63.75 91.1032 62.493 89.8462 60.9423 89.8462Z" fill="#FD1284"/>
<path d="M79.6923 89.8462H74.0577C72.507 89.8462 71.25 91.1032 71.25 92.6539C71.25 94.2045 72.507 95.4616 74.0577 95.4616H79.6923C81.243 95.4616 82.5 94.2045 82.5 92.6539C82.5 91.1032 81.243 89.8462 79.6923 89.8462Z" fill="#26C6DA"/>
<path d="M102.192 89.8462H92.8077C91.257 89.8462 90 91.1032 90 92.6539C90 94.2045 91.257 95.4616 92.8077 95.4616H102.192C103.743 95.4616 105 94.2045 105 92.6539C105 91.1032 103.743 89.8462 102.192 89.8462Z" fill="#FFCB3D"/>
<path d="M139.692 89.8462H115.308C113.757 89.8462 112.5 91.1032 112.5 92.6539C112.5 94.2045 113.757 95.4616 115.308 95.4616H139.692C141.243 95.4616 142.5 94.2045 142.5 92.6539C142.5 91.1032 141.243 89.8462 139.692 89.8462Z" fill="#7A37C4"/>
<path d="M154.692 89.8462H152.808C151.257 89.8462 150 91.1032 150 92.6539C150 94.2045 151.257 95.4616 152.808 95.4616H154.692C156.243 95.4616 157.5 94.2045 157.5 92.6539C157.5 91.1032 156.243 89.8462 154.692 89.8462Z" fill="#FFCB3D"/>
<path d="M45.9423 56.1538H44.0577C42.507 56.1538 41.25 57.4109 41.25 58.9615C41.25 60.5121 42.507 61.7692 44.0577 61.7692H45.9423C47.493 61.7692 48.75 60.5121 48.75 58.9615C48.75 57.4109 47.493 56.1538 45.9423 56.1538Z" fill="#26C6DA"/>
<path d="M113.442 56.1538H59.0577C57.507 56.1538 56.25 57.4109 56.25 58.9615C56.25 60.5121 57.507 61.7692 59.0577 61.7692H113.442C114.993 61.7692 116.25 60.5121 116.25 58.9615C116.25 57.4109 114.993 56.1538 113.442 56.1538Z" fill="#FFCB3D"/>
<path d="M154.692 56.1538H126.558C125.007 56.1538 123.75 57.4109 123.75 58.9615C123.75 60.5121 125.007 61.7692 126.558 61.7692H154.692C156.243 61.7692 157.5 60.5121 157.5 58.9615C157.5 57.4109 156.243 56.1538 154.692 56.1538Z" fill="#7A37C4"/>
<path d="M53.4423 44.9231H44.0577C42.507 44.9231 41.25 46.1801 41.25 47.7308C41.25 49.2814 42.507 50.5385 44.0577 50.5385H53.4423C54.993 50.5385 56.25 49.2814 56.25 47.7308C56.25 46.1801 54.993 44.9231 53.4423 44.9231Z" fill="#FD1284"/>
<path d="M90.9423 44.9231H66.5577C65.007 44.9231 63.75 46.1801 63.75 47.7308C63.75 49.2814 65.007 50.5385 66.5577 50.5385H90.9423C92.493 50.5385 93.75 49.2814 93.75 47.7308C93.75 46.1801 92.493 44.9231 90.9423 44.9231Z" fill="#FD1284"/>
<path d="M109.692 44.9231H104.058C102.507 44.9231 101.25 46.1801 101.25 47.7308C101.25 49.2814 102.507 50.5385 104.058 50.5385H109.692C111.243 50.5385 112.5 49.2814 112.5 47.7308C112.5 46.1801 111.243 44.9231 109.692 44.9231Z" fill="#FFCB3D"/>
<path d="M162.192 44.9231H122.808C121.257 44.9231 120 46.1801 120 47.7308C120 49.2814 121.257 50.5385 122.808 50.5385H162.192C163.743 50.5385 165 49.2814 165 47.7308C165 46.1801 163.743 44.9231 162.192 44.9231Z" fill="#26C6DA"/>
<path d="M94.6923 101.077H44.0577C42.507 101.077 41.25 102.334 41.25 103.885C41.25 105.435 42.507 106.692 44.0577 106.692H94.6923C96.243 106.692 97.5 105.435 97.5 103.885C97.5 102.334 96.243 101.077 94.6923 101.077Z" fill="#FFCB3D"/>
<path d="M132.192 101.077H107.808C106.257 101.077 105 102.334 105 103.885C105 105.435 106.257 106.692 107.808 106.692H132.192C133.743 106.692 135 105.435 135 103.885C135 102.334 133.743 101.077 132.192 101.077Z" fill="#26C6DA"/>
<path d="M162.192 101.077H145.308C143.757 101.077 142.5 102.334 142.5 103.885C142.5 105.435 143.757 106.692 145.308 106.692H162.192C163.743 106.692 165 105.435 165 103.885C165 102.334 163.743 101.077 162.192 101.077Z" fill="#FD1284"/>
<path d="M53.4423 112.308H44.0577C42.507 112.308 41.25 113.565 41.25 115.115C41.25 116.666 42.507 117.923 44.0577 117.923H53.4423C54.993 117.923 56.25 116.666 56.25 115.115C56.25 113.565 54.993 112.308 53.4423 112.308Z" fill="#26C6DA"/>
<path d="M83.4423 112.308H66.5577C65.007 112.308 63.75 113.565 63.75 115.115C63.75 116.666 65.007 117.923 66.5577 117.923H83.4423C84.993 117.923 86.25 116.666 86.25 115.115C86.25 113.565 84.993 112.308 83.4423 112.308Z" fill="#7A37C4"/>
<path d="M124.692 112.308H96.5577C95.007 112.308 93.75 113.565 93.75 115.115C93.75 116.666 95.007 117.923 96.5577 117.923H124.692C126.243 117.923 127.5 116.666 127.5 115.115C127.5 113.565 126.243 112.308 124.692 112.308Z" fill="#FD1284"/>
<path d="M147.192 112.308H137.808C136.257 112.308 135 113.565 135 115.115C135 116.666 136.257 117.923 137.808 117.923H147.192C148.743 117.923 150 116.666 150 115.115C150 113.565 148.743 112.308 147.192 112.308Z" fill="#FFCB3D"/>
</svg>
